<svg xmlns="http://www.w3.org/2000/svg" width="1400" height="330" viewBox="0 0 1400 330">
<style>
text{font-family:Arial,sans-serif;fill:#172033}.title{font-size:25px;font-weight:700}.subtitle{font-size:14px;fill:#42526b}.label{font-size:14px}.small{font-size:12px}.lane{font-size:17px;font-weight:700}.grid{stroke:#dce3ec;stroke-width:1}.axis{stroke:#53657a;stroke-width:1.2}
</style>
<rect width="100%" height="100%" fill="#f8fafc"/>
<text x="28" y="38" class="title">GeoTransolver volume 100k (compiled): GPU envelopes and step bubbles</text>
<text x="28" y="64" class="subtitle">GPU busy envelopes across consecutive steps; red gaps expose inter-step pipeline starvation.</text>
<line x1="180.0" y1="90" x2="180.0" y2="250" class="grid"/>
<text x="180.0" y="272" text-anchor="middle" class="small">0.0</text>
<line x1="388.0" y1="90" x2="388.0" y2="250" class="grid"/>
<text x="388.0" y="272" text-anchor="middle" class="small">829.5</text>
<line x1="596.0" y1="90" x2="596.0" y2="250" class="grid"/>
<text x="596.0" y="272" text-anchor="middle" class="small">1659.1</text>
<line x1="804.0" y1="90" x2="804.0" y2="250" class="grid"/>
<text x="804.0" y="272" text-anchor="middle" class="small">2488.6</text>
<line x1="1012.0" y1="90" x2="1012.0" y2="250" class="grid"/>
<text x="1012.0" y="272" text-anchor="middle" class="small">3318.1</text>
<line x1="1220.0" y1="90" x2="1220.0" y2="250" class="grid"/>
<text x="1220.0" y="272" text-anchor="middle" class="small">4147.7</text>
<text x="162" y="145" text-anchor="end" class="lane">GPU</text>
<rect x="180" y="112" width="1040" height="52" fill="#e6ebf2" stroke="#8fa0b5"/>
<rect x="292.7" y="112" width="93.9" height="52" fill="#59a14f" stroke="#ffffff"/>
<text x="339.7" y="143" text-anchor="middle" class="small" style="fill:#ffffff">ProfilerStep#6</text>
<rect x="386.7" y="112" width="107.7" height="52" fill="#e15759" fill-opacity="0.9"/>
<text x="440.5" y="143" text-anchor="middle" class="small" style="fill:#ffffff">bubble 429.7 ms</text>
<rect x="494.4" y="112" width="93.8" height="52" fill="#59a14f" stroke="#ffffff"/>
<text x="541.3" y="143" text-anchor="middle" class="small" style="fill:#ffffff">ProfilerStep#7</text>
<rect x="588.2" y="112" width="128.3" height="52" fill="#e15759" fill-opacity="0.9"/>
<text x="652.3" y="143" text-anchor="middle" class="small" style="fill:#ffffff">bubble 511.5 ms</text>
<rect x="716.5" y="112" width="92.0" height="52" fill="#59a14f" stroke="#ffffff"/>
<text x="762.5" y="143" text-anchor="middle" class="small" style="fill:#ffffff">ProfilerStep#8</text>
<rect x="808.5" y="112" width="127.3" height="52" fill="#e15759" fill-opacity="0.9"/>
<text x="872.1" y="143" text-anchor="middle" class="small" style="fill:#ffffff">bubble 507.5 ms</text>
<rect x="935.7" y="112" width="94.1" height="52" fill="#59a14f" stroke="#ffffff"/>
<text x="982.8" y="143" text-anchor="middle" class="small" style="fill:#ffffff">ProfilerStep#9</text>
<rect x="1029.8" y="112" width="98.1" height="52" fill="#e15759" fill-opacity="0.9"/>
<text x="1078.9" y="143" text-anchor="middle" class="small" style="fill:#ffffff">bubble 391.1 ms</text>
<rect x="1127.9" y="112" width="89.9" height="52" fill="#59a14f" stroke="#ffffff"/>
<text x="1172.9" y="143" text-anchor="middle" class="small" style="fill:#ffffff">ProfilerStep#10</text>
<text x="180" y="222" class="subtitle">Observed window: 4147.7 ms · GPU busy: 1849.5 ms · inter-step bubbles: 1839.9 ms.</text>
</svg>
